<svg width="188" height="183" viewBox="0 0 188 183" fill="none" xmlns="http://www.w3.org/2000/svg">
<g clip-path="url(#clip0_3_29)">
<rect width="188" height="183" rx="91.5" fill="white"/>
<path d="M146.75 92H130.375V38.625L101.562 89.3125C100.854 90.6042 99.8542 91.5833 98.5625 92.25C97.3125 92.9167 95.9583 93.25 94.5 93.25C93.0833 93.25 91.75 92.9167 90.5 92.25C89.2917 91.5833 88.3333 90.6042 87.625 89.3125L58.6875 38.625V92H42.4375V9.3125C42.4375 7.4375 42.9792 5.77083 44.0625 4.3125C45.1875 2.85417 46.6458 1.875 48.4375 1.375C49.3125 1.16667 50.1875 1.10417 51.0625 1.1875C51.9375 1.22917 52.7708 1.41667 53.5625 1.75C54.3958 2.04167 55.1458 2.47917 55.8125 3.0625C56.4792 3.60417 57.0417 4.27083 57.5 5.0625L94.5 69.375L131.5 5.0625C132.458 3.47917 133.771 2.35417 135.438 1.6875C137.146 1.02083 138.917 0.916667 140.75 1.375C142.5 1.875 143.938 2.85417 145.062 4.3125C146.188 5.77083 146.75 7.4375 146.75 9.3125V92Z" fill="#1E1E1E"/>
<path d="M42.25 84H58.625L58.625 137.375L87.4375 86.6875C88.1458 85.3958 89.1458 84.4167 90.4375 83.75C91.6875 83.0833 93.0417 82.75 94.5 82.75C95.9167 82.75 97.25 83.0833 98.5 83.75C99.7083 84.4167 100.667 85.3958 101.375 86.6875L130.312 137.375V84H146.562L146.562 166.688C146.562 168.562 146.021 170.229 144.938 171.688C143.812 173.146 142.354 174.125 140.562 174.625C139.688 174.833 138.812 174.896 137.938 174.812C137.062 174.771 136.229 174.583 135.438 174.25C134.604 173.958 133.854 173.521 133.188 172.938C132.521 172.396 131.958 171.729 131.5 170.938L94.5 106.625L57.5 170.938C56.5417 172.521 55.2292 173.646 53.5625 174.313C51.8542 174.979 50.0833 175.083 48.25 174.625C46.5 174.125 45.0625 173.146 43.9375 171.688C42.8125 170.229 42.25 168.563 42.25 166.688L42.25 84Z" fill="#1E1E1E"/>
<rect y="91" width="188" height="1" fill="#1E1E1E"/>
</g>
<defs>
<clipPath id="clip0_3_29">
<rect width="188" height="183" rx="91.5" fill="white"/>
</clipPath>
</defs>
</svg>
